<svg xmlns="http://www.w3.org/2000/svg" aria-hidden="true" style="position:absolute;width:0;height:0;overflow:hidden"><defs><symbol id="icon-twitter" viewBox="0 0 38 32"><path d="M37.647 3.622c-1.294 0.58-2.796 1.008-4.368 1.21l-0.080 0.008c1.6-0.961 2.802-2.445 3.38-4.211l0.015-0.054c-1.409 0.851-3.048 1.499-4.795 1.852l-0.099 0.017c-1.412-1.505-3.412-2.442-5.632-2.442-4.261 0-7.716 3.454-7.716 7.716 0 0.001 0 0.002 0 0.003v-0c0 0.61 0.051 1.199 0.179 1.758-6.417-0.312-12.094-3.388-15.908-8.072-0.664 1.118-1.058 2.464-1.062 3.901v0.001c0 2.673 1.378 5.043 3.428 6.415-1.284-0.036-2.479-0.384-3.523-0.97l0.038 0.020v0.085c0.005 3.722 2.632 6.829 6.133 7.573l0.051 0.009c-0.589 0.162-1.265 0.254-1.963 0.254-0.021 0-0.042-0-0.064-0l0.003 0c-0.493 0-0.992-0.028-1.461-0.132 1 3.057 3.836 5.304 7.211 5.376-2.606 2.054-5.936 3.294-9.556 3.294-0.005 0-0.010 0-0.015 0h0.001c-0.026 0-0.057 0-0.088 0-0.62 0-1.231-0.039-1.83-0.115l0.071 0.007c3.325 2.172 7.396 3.464 11.769 3.464 0.025 0 0.050-0 0.074-0h-0.004c14.202 0 21.967-11.765 21.967-21.963 0-0.339-0.011-0.67-0.028-0.998 1.528-1.101 2.812-2.429 3.833-3.949l0.035-0.055z"></path></symbol><symbol id="icon-antenna" viewBox="0 0 30 32"><path fill="#212121" d="m29.702 22.098-8.443-8.505.937-4.615c.242.094.499.144.758.146h.032a2.16 2.16 0 1 0-2.029-1.42l-.005-.015-4.96.605L7.901.161a.529.529 0 0 0-.75-.005L5.638 1.66a.535.535 0 0 0 0 .754l.814.826c-1.143 2.062-1.816 4.522-1.816 7.139 0 4.105 1.656 7.824 4.336 10.524l-.001-.001c.041.04.09.073.143.097l.003.001q-.05.271-.052.547v6.187h-6.4a2.67 2.67 0 0 0-2.667 2.667v1.067c0 .295.239.533.533.533h24.533a.533.533 0 0 0 .533-.533v-1.067a2.67 2.67 0 0 0-2.667-2.667h-6.4v-2.742a14.58 14.58 0 0 0 3.047.32h.002a14.784 14.784 0 0 0 7.117-1.822l-.077.039.818.823a.529.529 0 0 0 .75.005l1.513-1.504a.535.535 0 0 0 0-.754zM22.209 6.233a1.066 1.066 0 1 1 .752 1.822h-.003a1.067 1.067 0 0 1-.747-1.823h-.002zm-1.255 3.505-.598 2.946-1.175-1.182 1.774-1.763zm-.606-.902-1.92 1.909-1.485-1.493 3.405-.415zM22.933 28.8a1.6 1.6 0 0 1 1.6 1.6v.533H1.066V30.4a1.6 1.6 0 0 1 1.6-1.6zm-7.466-2.133v1.067h-5.333v-1.067zM10.133 25.6v-4.053c0-1.294 1.196-2.347 2.667-2.347s2.667 1.053 2.667 2.347V25.6zm6.4-1.696v-2.357c0-1.882-1.675-3.413-3.733-3.413h-.058c-1.353 0-2.54.707-3.213 1.771l-.009.016a13.816 13.816 0 0 1-3.811-9.55c0-2.314.567-4.496 1.569-6.414l-.036.077 18.602 18.708c-1.823.947-3.979 1.502-6.266 1.502a13.9 13.9 0 0 1-3.136-.357l.093.018zm11.289-.684L6.765 2.039l.755-.752 7.935 7.98c.004 0 .006.007.01.01L28.58 22.468z" style="fill:var(--color3, #212121)"/><path fill="#2196f3" d="M12.805 20.267h-.007a1.6 1.6 0 0 0-.002 3.2h.007a1.6 1.6 0 0 0 .002-3.2zm.373 1.978a.533.533 0 1 1-.378-.911.532.532 0 0 1 .373.911z" style="fill:var(--color4, #2196f3)"/></symbol><symbol id="icon-astronaut" viewBox="0 0 32 32"><path fill="#2196f3" d="M31.974 4.524a.533.533 0 0 0-.427-.363h-.003l-1.91-.278-.855-1.731c-.179-.365-.777-.365-.956 0l-.855 1.731-1.91.278a.536.536 0 0 0-.296.91l1.383 1.348-.326 1.903a.536.536 0 0 0 .525.624.524.524 0 0 0 .252-.064l-.003.001 1.709-.899 1.709.899a.536.536 0 0 0 .774-.566v.003l-.326-1.903 1.383-1.348a.539.539 0 0 0 .134-.551l.001.004zm-2.463 1.327a.528.528 0 0 0-.153.475v-.003l.191 1.114-1-.526a.525.525 0 0 0-.501.002l.003-.001-1.001.526.191-1.114a.525.525 0 0 0-.153-.472l-.81-.789 1.119-.163a.531.531 0 0 0 .401-.289l.001-.003.5-1.013.5 1.013a.546.546 0 0 0 .399.292h.003l1.119.163zm-3.377 14.671h-1.067v1.067h1.067zm0 2.134h-1.067v1.067h1.067zm1.066-1.067h-1.067v1.067H27.2zm-2.133 0H24v1.067h1.067zm-2.667 4.8h-1.067v1.067H22.4zm0 2.133h-1.067v1.067H22.4zm1.067-1.066H22.4v1.067h1.067zm-2.134 0h-1.067v1.067h1.067zM16 24.256h-1.067v1.067H16zm0 2.133h-1.067v1.067H16zm1.067-1.067H16v1.067h1.067zm-2.134 0h-1.067v1.067h1.067zm-9.066-19.2H4.8v1.067h1.067zm0 2.133H4.8v1.067h1.067z" style="fill:var(--color4, #2196f3)"/><path fill="#2196f3" d="M6.933 7.189H5.866v1.067h1.067zm-2.133 0H3.733v1.067H4.8z" style="fill:var(--color4, #2196f3)"/><path fill="#212121" d="M24.715 14.159a1.781 1.781 0 0 0-1.179-.704l-.009-.001a1.774 1.774 0 0 0-1.344.355l.004-.003-1.252.96-1.898 1.417-1.358-.541c2.421-1.086 4.114-3.508 4.114-6.32 0-3.823-3.123-6.933-6.961-6.933s-6.961 3.11-6.961 6.933v.001c0 1.398.418 2.698 1.136 3.782l-.016-.025-2.769-.024-.023.005a.483.483 0 0 0-.158.032l.003-.001-.038.013-.019.006-3.234 1.597-1.893.911a.429.429 0 0 0-.064.036l.001-.001a1.78 1.78 0 0 0-.593 2.305l-.005-.01c.22.429.595.745 1.056.889q.268.083.539.083c.29 0 .577-.071.839-.211l1.388-.738 2.264-1.169 1.357-.008-6.783 6.75c-.316.315-.49.732-.49 1.178s.174.863.49 1.179c.325.323.752.485 1.179.485s.854-.162 1.18-.485l1.314-1.309 1.741-1.3.901.897-3.103 3.088c-.316.315-.49.732-.49 1.178s.174.863.49 1.179c.325.323.753.485 1.18.485s.855-.162 1.18-.485l3.483-3.469 1.01-1-.004-.004.022-.015 5.166-5.658 3.471.494q.037.006.075.005a.515.515 0 0 0 .19-.039l-.003.001q.026-.01.05-.023c.019-.01.039-.015.058-.027l3.213-2.133c.012-.008.018-.021.029-.029.013-.01.029-.014.041-.026l1.271-1.191c.662-.62.753-1.635.212-2.362zM2.13 17.77a.706.706 0 0 1-.563.05l.005.001a.719.719 0 0 1-.215-1.258l.002-.001 1.314-.632.449 1.312zm3.498-1.828-1.548.8-.439-1.283 2.027-1.001zm15.099-6.62a5.765 5.765 0 0 1-.614 2.592l.015-.033-4.181-1.899a1.86 1.86 0 0 0-.782-1.384l-.006-.004 1.464-4.86c2.378.756 4.105 2.974 4.105 5.588zm-11.789 0c0-3.235 2.644-5.867 5.894-5.867.253 0 .5.021.745.052l-1.432 4.754c-.019-.001-.037-.006-.057-.006-1.033 0-1.873.837-1.873 1.867s.84 1.867 1.873 1.867c.694 0 1.294-.383 1.618-.945l3.862 1.755a5.9 5.9 0 0 1-4.737 2.39c-3.25 0-5.894-2.632-5.894-5.867zm5.956.8c0 .441-.362.8-.806.8s-.806-.359-.806-.8.362-.8.806-.8.806.359.806.8zM2.465 25.146a.609.609 0 0 1-.855.001.587.587 0 0 1 0-.844l.962-.958.851.848-.959.955zm3.214 3.734a.609.609 0 0 1-.855.001.587.587 0 0 1 0-.844l.963-.959.852.848-.96.955zm3.481-3.469-.002.001-1.765 1.76-.852-.848 1.765-1.756c.04-.04.065-.088.09-.135.007-.014.02-.026.026-.04.017-.041.019-.085.026-.129.003-.025.014-.047.014-.073 0-.036-.013-.07-.02-.106-.006-.032-.006-.065-.019-.095a.59.59 0 0 0-.092-.139l.001.001c-.01-.012-.014-.027-.025-.038h-.001l-.001-.002-1.607-1.6c-.017-.017-.039-.024-.058-.038a.563.563 0 0 0-.084-.057l-.003-.001a.432.432 0 0 0-.09-.032l-.003-.001a.441.441 0 0 0-.101-.02h-.023a.468.468 0 0 0-.076.006h.003a.47.47 0 0 0-.108.021l.004-.001a.502.502 0 0 0-.096.046l.002-.001c-.02.011-.042.015-.061.029l-1.773 1.324-.901-.897 2.399-2.386 4.361 4.289zm6.819-7.017c-.015-.002-.03.004-.045.003h-.019c-.103 0-.2.028-.283.077l.003-.001a.54.54 0 0 0-.083.061c-.013.011-.028.017-.04.029l-4.698 5.146-4.328-4.257 2.833-2.818a.535.535 0 0 0-.378-.911H8.94v-.001l-2.219.013.028-1.607 3.104.027a6.929 6.929 0 0 0 4.979 2.101h.002c.437 0 .864-.045 1.279-.123.04.032.079.065.13.085l2.41.96.331 1.644-3.003-.427zm4.041.178-.313-1.558 1.446-1.08.947 1.257zm3.754-2.831-.838.785-.931-1.236.831-.637a.736.736 0 0 1 .547-.142h-.004a.72.72 0 0 1 .479.282l.001.002a.712.712 0 0 1-.085.947z" style="fill:var(--color3, #212121)"/><path fill="#212121" d="m13.602 18.544-2.143-2.133a.534.534 0 0 0-.754 0l-2.142 2.133a.537.537 0 0 0 0 .756l2.142 2.133a.533.533 0 0 0 .754-.001l2.143-2.133a.535.535 0 0 0 0-.756zm-2.519 1.759-1.387-1.381 1.387-1.381 1.387 1.381zm6.081-15.232-.258 1.036c.071.018 1.738.452 1.738 2.149h1.067c0-2.017-1.666-2.965-2.547-3.185zm2.547 4.251h-1.067v1.067h1.067z" style="fill:var(--color3, #212121)"/></symbol><symbol id="icon-Brand" viewBox="0 0 57 32"><path d="M14.27 23.859c.13.147.199.332.196.521.007.123-.017.247-.07.361s-.132.216-.233.297c-.252.175-.565.26-.881.24h-1.549v-3.302h1.517c.299-.018.596.059.84.219.098.075.176.17.227.277s.074.224.068.341l.001.029a.73.73 0 0 1-.177.477l.001-.001a.838.838 0 0 1-.457.257l-.005.001a.9.9 0 0 1 .522.281l.001.001zm-1.816-.499h.648a.653.653 0 0 0 .415-.111l-.002.001q.074-.061.111-.146a.278.278 0 0 0 .028-.178v.002q.007-.091-.029-.175a.33.33 0 0 0-.107-.146l-.001-.001a.664.664 0 0 0-.427-.111h.002-.638v.866zm1.124 1.267q.079-.063.12-.151c.041-.088.038-.121.034-.184q.006-.097-.035-.186c-.041-.089-.069-.111-.121-.153a.69.69 0 0 0-.393-.121l-.049.002h.002-.68v.908h.689a.725.725 0 0 0 .437-.116l-.003.002zm3.793.651-.844-1.291h-.317v1.291h-.726v-3.302h1.374c.346-.022.689.078.957.281.192.179.308.415.327.666s-.061.499-.224.7c-.17.178-.401.296-.655.336l.898 1.32zm-1.161-1.74h.594q.618 0 .618-.5l.001-.029a.456.456 0 0 0-.152-.341.695.695 0 0 0-.47-.134h.002-.601zm5.129 1.076h-1.446l-.255.665h-.761l1.328-3.265h.823l1.323 3.265h-.761l-.25-.665zm-.194-.5-.529-1.394-.529 1.394h1.057zm5.16 1.164h-.721l-1.616-2.245v2.245h-.719v-3.302h.719l1.616 2.258v-2.258h.721zm4.112-.79a1.508 1.508 0 0 1-.643.578l-.009.004c-.281.132-.61.209-.957.209l-.059-.001h.003-1.283v-3.302h1.283c.351-.008.698.061 1.013.203.276.127.503.328.652.576a1.775 1.775 0 0 1-.004 1.741l.005-.009zm-.824-.079c.206-.219.319-.499.319-.788s-.113-.569-.319-.788a1.32 1.32 0 0 0-.906-.28h.004-.5v2.137h.5c.329.019.654-.082.902-.281zm-7.803-20.8s9.301 3.215 9.103 7.867v7.869s-9.294-3.217-9.1-7.869l-.004-7.867zm17.389 13.894a13.327 13.327 0 0 1 5.855-1.99l.054-.004v-2.463c-2.444.862-4.517 2.426-5.909 4.457z"/><path d="M38.124 18.245c1.438-2.651 3.93-4.696 6.964-5.715V5.432s-13.245 4.58-12.965 11.205V27.84s.59-.205 1.519-.589c0-.358 0-.719.042-1.082.274-3.076 1.871-5.926 4.44-7.924z"/><path d="M36.864 22.407c.07-.777.225-1.546.463-2.294-1.599 1.725-2.568 3.866-2.77 6.122q-.028.318-.035.645a37.628 37.628 0 0 0 2.768-1.337l-.22.108a10.665 10.665 0 0 1-.202-3.286l-.003.042zm.527.04a10.213 10.213 0 0 0 .176 3.004l-.012-.066c3.619-1.983 7.685-5.046 7.528-8.748v-.323c-2.585.265-5.004 1.3-6.885 2.946a10.047 10.047 0 0 0-.804 3.148l-.003.04z"/></symbol><symbol id="icon-clock" viewBox="0 0 32 32"><path fill="#212121" d="M31.297 15.301C31.295 6.849 24.442-.002 15.989 0S.686 6.855.688 15.308c0 6.788 4.421 12.544 10.541 14.545l.108.031a.657.657 0 0 0 .532-.067l-.003.002a.645.645 0 0 0 .282-.351l.001-.005 3.865-12.25a1.912 1.912 0 1 0-.851-3.63l.011-.005-5.106-5.107a.637.637 0 1 0-.902.902l5.103 5.109a1.873 1.873 0 0 0 .532 2.306l.004.003-3.683 11.673C3.844 25.783.118 17.71 2.799 10.432S13.553-.572 20.831 2.109s11.004 10.754 8.323 18.032c-1.345 3.581-4.003 6.406-7.374 7.937l-.088.036-.398-1.874a.639.639 0 0 0-1.049-.343l.001-.001-3.837 3.426a.638.638 0 0 0 .227 1.083l.005.001 4.899 1.563a.638.638 0 0 0 .818-.745l.001.004-.391-1.839c5.528-2.374 9.329-7.772 9.329-14.057v-.034.002zm-15.305-.637a.639.639 0 1 1 0 1.278.639.639 0 1 1 0-1.278zm2.101 14.864 2.184-1.948.603 2.84z" style="fill:var(--color3, #212121)"/><path fill="#2196f3" d="M15.354 3.185V4.46a.638.638 0 0 0 1.276 0V3.185a.638.638 0 0 0-1.276 0zM3.876 14.664a.638.638 0 0 0 0 1.276h1.275a.638.638 0 0 0 0-1.276zm24.232 1.275a.638.638 0 0 0 0-1.276h-1.275a.638.638 0 0 0 0 1.276z" style="fill:var(--color4, #2196f3)"/></symbol><symbol id="icon-Company" viewBox="0 0 57 32"><path d="M19.417 26.187q.013 0 .025.005c.012.005.015.007.02.013l.116.111a.996.996 0 0 1-.32.209l-.007.002a1.283 1.283 0 0 1-.439.076h-.027.001-.028c-.146 0-.286-.026-.416-.074l.008.003a.912.912 0 0 1-.539-.502l-.002-.006a.983.983 0 0 1-.074-.378v-.019.001-.025c0-.27.118-.513.304-.679l.001-.001c.099-.085.215-.153.341-.199l.008-.002c.143-.048.296-.072.449-.071.143-.003.285.019.417.064q.174.066.313.178l-.097.119a.103.103 0 0 1-.025.021.068.068 0 0 1-.035.009h-.005a.094.094 0 0 1-.042-.013l-.052-.032-.073-.04a.753.753 0 0 0-.224-.07l-.005-.001a1 1 0 0 0-.161-.013h-.012.001-.002a.99.99 0 0 0-.328.055l.007-.002a.685.685 0 0 0-.415.383l-.002.004a.785.785 0 0 0-.06.304v.023c0 .11.022.214.062.31l-.002-.005a.683.683 0 0 0 .397.381l.005.002c.088.032.19.05.296.05h.004q.09.001.177-.01a.696.696 0 0 0 .385-.164l-.001.001a.094.094 0 0 1 .055-.02zm3.359-.558v.006c0 .14-.029.273-.081.394l.002-.006q-.072.173-.219.305c-.147.132-.214.155-.344.2a1.436 1.436 0 0 1-.894-.002l.01.003a1.005 1.005 0 0 1-.343-.202l.001.001a.898.898 0 0 1-.219-.302l-.002-.006a1.024 1.024 0 0 1 .002-.793l-.003.007a.901.901 0 0 1 .22-.309l.001-.001c.097-.084.214-.15.342-.193.284-.096.6-.096.884 0q.196.07.343.201a.906.906 0 0 1 .298.674v.026-.001zm-.306 0v-.024a.798.798 0 0 0-.057-.298l.002.005a.655.655 0 0 0-.397-.384l-.005-.001a1.018 1.018 0 0 0-.651.002l.007-.002a.703.703 0 0 0-.246.149.603.603 0 0 0-.156.232l-.001.004a.928.928 0 0 0 .002.638l-.002-.006c.07.183.216.323.398.383l.005.001c.207.067.435.067.643 0a.71.71 0 0 0 .246-.148.693.693 0 0 0 .154-.231l.002-.005a.787.787 0 0 0 .055-.292v-.025.001zm2.597.331.03.071.033-.071a.702.702 0 0 1 .041-.074l-.003.004.743-1.174q.022-.03.042-.037a.196.196 0 0 1 .05-.006h.012-.001.22v1.909h-.26v-1.529l-.747 1.19q-.015.028-.044.043a.099.099 0 0 1-.055.016H25.077q-.035 0-.064-.016c-.029-.016-.034-.026-.044-.044l-.769-1.198v1.533h-.252v-1.905h.231a.17.17 0 0 1 .051.007h-.001a.098.098 0 0 1 .041.037l.759 1.175c.014.02.026.042.037.065l.001.003zm2.797-.095v.715h-.291v-1.906h.649q.184-.003.362.042a.72.72 0 0 1 .258.12l-.002-.001a.499.499 0 0 1 .144.184l.001.003c.031.07.049.152.049.238v.014a.536.536 0 0 1-.21.427l-.001.001a.788.788 0 0 1-.251.125l-.006.001a1.27 1.27 0 0 1-.336.044h-.015.001l-.352-.005zm0-.205h.363c.076 0 .15-.011.219-.03l-.006.001a.479.479 0 0 0 .164-.083l-.001.001a.358.358 0 0 0 .134-.279v-.007q.004-.08-.029-.155c-.033-.075-.057-.094-.102-.13a.614.614 0 0 0-.343-.104l-.05.002h.002-.352v.786zm3.908.923H31.536a.105.105 0 0 1-.058-.018.104.104 0 0 1-.038-.043v-.001l-.198-.461h-.993l-.205.461a.11.11 0 0 1-.099.062h-.232l.872-1.909h.302l.884 1.909zm-1.439-.709h.82l-.346-.777a.916.916 0 0 1-.063-.172l-.002-.007-.034.1-.032.081-.343.776zm2.696-1.192q.026.012.044.034l1.272 1.439v-1.482h.26v1.909h-.15a.147.147 0 0 1-.056-.011h.001a.206.206 0 0 1-.047-.035l-1.271-1.438v1.485h-.26v-1.909h.154a.217.217 0 0 1 .053.009h-.001zm3.719 1.141v.758h-.291v-.758l-.804-1.15h.268c.02 0 .039.006.055.017a.221.221 0 0 1 .039.042v.001l.503.742q.03.048.052.088c.022.04.026.054.036.081l.038-.082c.017-.035.034-.063.051-.091l-.002.004.496-.747a.24.24 0 0 1 .038-.04.099.099 0 0 1 .059-.019h.267zM24.923 21.47q.19.02.384.035c1.962-.763 3.622-2.011 4.772-3.588s1.74-3.415 1.695-5.282l-2.162-1.879c.44 1.988.234 4.043-.594 5.935s-2.245 3.547-4.094 4.779z"/><path d="m24.151 21.383.058.01c1.975-1.228 3.482-2.942 4.323-4.921s.981-4.133.4-6.181l-3.08-2.676c1.246 2.2 1.747 4.661 1.446 7.098s-1.393 4.75-3.147 6.67zm10.445-6.542c-.523 2.052-1.794 3.902-3.624 5.276-.534.404-1.111.763-1.722 1.074 1.49-.38 2.859-1.053 4.003-1.966s2.03-2.042 2.592-3.3z"/><path d="m34.106 14.539-1.778-1.545c-.034 1.762-.61 3.483-1.669 4.986s-2.562 2.731-4.352 3.559h.009q.6 0 1.194-.062c1.673-.593 3.151-1.537 4.303-2.748s1.94-2.65 2.295-4.189zm-9.697-8.053L22.287 4.64c-1.897.637-3.528 1.756-4.68 3.212s-1.772 3.179-1.778 4.946c.007 1.952.763 3.846 2.149 5.383s3.322 2.628 5.501 3.101c1.946-2.06 3.085-4.605 3.252-7.266s-.647-5.299-2.323-7.53zm14.599 7.769c-.008-2.316-1.07-4.535-2.955-6.173s-4.439-2.561-7.105-2.567h-.022c-1.281 0-2.512.213-3.659.606l.08-.024 12.99 11.286a7.537 7.537 0 0 0 .672-3.128z"/></symbol><symbol id="icon-diagram" viewBox="0 0 32 32"><path fill="#2196f3" d="M14.926 14.965h1.066v4.798h-1.066zm4.264 2.132h1.066v2.665H19.19zm-8.529 1.599h1.066v1.066h-1.066zm-3.198-.533h1.066v1.599H7.463z" style="fill:var(--color4, #2196f3)"/><path fill="#212121" d="M1.599 28.291h25.587a1.6 1.6 0 0 0 1.599-1.599V24.56a1.6 1.6 0 0 0-1.599-1.599h-.533V9.668L29.681 6.8a1.608 1.608 0 1 0-.741-.753l-.004-.01L26.655 8.2V6.97a1.6 1.6 0 0 0-1.599-1.599H3.734A1.6 1.6 0 0 0 2.135 6.97v15.992h-.533a1.6 1.6 0 0 0-1.599 1.599v2.132a1.6 1.6 0 0 0 1.599 1.599zM30.384 4.837a.534.534 0 1 1 0 1.068.534.534 0 1 1 0-1.068zM3.198 6.969c0-.294.239-.533.533-.533h21.322c.294 0 .533.239.533.533v2.239l-1.066 1.013V8.035a.533.533 0 0 0-.533-.533H4.797a.533.533 0 0 0-.533.533v13.326c0 .294.239.533.533.533h19.19a.533.533 0 0 0 .533-.533v-9.674l1.066-1.01v12.284H3.198zm4.798 6.93h-.002a1.597 1.597 0 1 0 1.109 2.749h-.001l1.853.93a.528.528 0 0 0 .635-.122l3.94-4.432 3.872 2.901a.527.527 0 0 0 .686-.039l3.365-3.188v8.131H5.329V8.569h18.124v2.66l-3.771 3.572-3.904-2.927a.534.534 0 0 0-.718.071v.001l-3.993 4.493-1.493-.746q.017-.096.02-.193a1.6 1.6 0 0 0-1.599-1.599zm.533 1.599a.533.533 0 1 1-1.068-.001.534.534 0 1 1 1.068 0zm3.198 8.529h5.331v.533a.533.533 0 0 1-.533.533h-4.264a.533.533 0 0 1-.533-.533zm-10.661.533c0-.294.239-.533.533-.533h9.062v.533a1.6 1.6 0 0 0 1.599 1.599h4.264a1.6 1.6 0 0 0 1.599-1.599v-.533h9.062c.294 0 .533.239.533.533v2.132a.533.533 0 0 1-.533.533H1.598a.533.533 0 0 1-.533-.533z" style="fill:var(--color3, #212121)"/></symbol><symbol id="icon-email" viewBox="0 0 43 32"><path d="M38.667 0H4C1.794 0 0 1.794 0 3.999v23.992a4.004 4.004 0 0 0 4 3.999h34.667c2.206 0 4-1.794 4-3.999V3.999a4.004 4.004 0 0 0-4-3.999zm0 2.666c.181 0 .353.038.511.103l-17.844 15.46L3.49 2.769c.15-.065.324-.103.507-.103h34.671zm0 26.657H4a1.333 1.333 0 0 1-1.333-1.333V5.585L20.46 21a1.332 1.332 0 0 0 1.75-.002l-.002.001L40.001 5.584v22.405c0 .735-.598 1.333-1.333 1.333z" fill="currentColor"/></symbol><symbol id="icon-facebook" viewBox="0 0 16 32"><path d="M13.08 5.313h2.921V.225C15.497.156 13.764 0 11.745 0 7.533 0 4.648 2.649 4.648 7.519V12H0v5.688h4.648V32h5.699V17.689h4.46l.708-5.688h-5.169V8.082c.001-1.644.444-2.769 2.735-2.769z"/></symbol><symbol id="icon-Fosted-Peters" viewBox="0 0 57 32"><path d="M12.878 11.255h-.002c-1.279 0-2.316.921-2.316 2.058v.001c0 1.137 1.037 2.058 2.316 2.058h.002c1.279 0 2.316-.921 2.316-2.058v-.001c0-1.137-1.037-2.058-2.316-2.058zm17.093-.658c-.004-1.579-.711-3.092-1.967-4.208s-2.958-1.745-4.735-1.749c-1.777.003-3.48.631-4.737 1.748s-1.964 2.63-1.968 4.209v8.706s13.405-1.327 13.406-8.704zM5.867 22.16c.003 1.098.496 2.151 1.369 2.928s2.058 1.215 3.294 1.218c1.236-.003 2.42-.441 3.294-1.218s1.366-1.829 1.37-2.927v-6.057s-9.327.924-9.327 6.056zm4.663 1.085c-.242 0-.478-.064-.678-.183s-.357-.289-.45-.487c-.092-.198-.117-.417-.069-.627s.163-.404.334-.556.388-.255.625-.297.482-.02.706.062.414.221.548.4.206.388.206.603q0 .216-.092.417c-.092.201-.151.252-.264.353q-.172.153-.397.236a1.084 1.084 0 0 1-.422.084l-.049-.001h.002zm9.426-.598h-.9v.93h-.469v-2.275h1.481v.38h-1.012v.588h.9v.378zm2.253-.156q0 .336-.119.589c-.119.253-.193.299-.341.391a.92.92 0 0 1-.486.137h-.021.001q-.283 0-.505-.136c-.222-.136-.262-.22-.344-.387a1.319 1.319 0 0 1-.123-.561v-.021.001-.112q0-.336.12-.591a.896.896 0 0 1 .85-.529h-.002q.284 0 .505.137a.912.912 0 0 1 .34.386l.002.006q.122.255.122.589v.102zm-.475-.103q0-.358-.128-.544c-.128-.186-.207-.186-.366-.186h-.016a.42.42 0 0 0-.347.183l-.001.001q-.128.183-.13.538v.111q0 .348.128.541c.128.193.208.192.369.192h.015a.42.42 0 0 0 .347-.183l.001-.001q.126-.186.128-.541zm1.996.592v-.012a.239.239 0 0 0-.094-.19h-.001a1.186 1.186 0 0 0-.329-.148l-.008-.002a2.32 2.32 0 0 1-.399-.162l.013.006q-.387-.21-.387-.564 0-.184.103-.328a.698.698 0 0 1 .293-.225l.005-.002q.195-.081.438-.081.244 0 .434.089.191.087.295.248a.53.53 0 0 1 .106.368v-.002h-.469q0-.156-.098-.242c-.098-.086-.158-.087-.277-.087l-.026-.001a.428.428 0 0 0-.242.075l.001-.001a.23.23 0 0 0-.095.186v.005q0 .111.111.186t.33.141q.4.12.583.298c.183.178.183.267.183.444V23a.55.55 0 0 1-.222.442l-.001.001q-.223.167-.602.167-.262 0-.478-.095-.216-.098-.33-.264c-.114-.166-.113-.241-.113-.388h.47q0 .377.45.377l.026.001a.432.432 0 0 0 .236-.069l-.002.001a.22.22 0 0 0 .094-.181v-.011zm2.501-1.298h-.697v1.895h-.469v-1.895h-.687v-.38h1.853zm1.638.909h-.9v.609h1.056v.377H26.5v-2.275h1.522v.38h-1.053v.542h.9zm1.273.153h-.373v.833H28.3v-2.275h.845q.403 0 .622.18c.219.18.219.289.219.508v.024a.698.698 0 0 1-.104.368l.002-.003a.695.695 0 0 1-.3.245l-.005.002.492.93v.022h-.503l-.427-.833zm-.373-.379h.378q.177 0 .273-.089a.32.32 0 0 0 .098-.23l-.001-.019v.001l.001-.02a.337.337 0 0 0-.093-.233q-.09-.092-.28-.092h-.377v.683zm2.84.41v.802h-.469v-2.275h.887q.256 0 .45.094c.194.094.23.152.3.267q.105.172.105.392l.001.027c0 .2-.089.379-.23.5l-.001.001q-.228.192-.633.192h-.411zm0-.379h.419q.186 0 .283-.088.099-.087.098-.25 0-.167-.098-.27c-.098-.103-.156-.104-.272-.106h-.43zm2.966.195h-.9v.609h1.056v.377h-1.525v-2.275h1.522v.38h-1.053v.542h.9zm2.175-.909h-.697v1.895h-.469v-1.895h-.688v-.38h1.853v.38zm1.637.909h-.9v.609h1.056v.377h-1.525v-2.275h1.522v.38h-1.053v.542h.9zm1.274.153h-.373v.833h-.469v-2.275h.845q.403 0 .622.18c.219.18.219.289.219.508v.024a.698.698 0 0 1-.104.368l.002-.003a.695.695 0 0 1-.3.245l-.005.002.492.93v.022h-.503zm-.374-.379h.378q.177 0 .273-.089a.32.32 0 0 0 .097-.23l-.001-.019v.001l.001-.02a.337.337 0 0 0-.093-.233q-.09-.092-.28-.092h-.377v.683zm2.755.615v-.012a.239.239 0 0 0-.094-.19h-.001a1.186 1.186 0 0 0-.329-.148l-.008-.002a2.32 2.32 0 0 1-.399-.162l.013.006q-.387-.21-.388-.564 0-.184.103-.328a.698.698 0 0 1 .293-.225l.005-.002q.195-.081.438-.081t.434.089a.679.679 0 0 1 .293.246l.002.002c.066.1.106.223.106.356v.011-.001h-.469q0-.156-.098-.242c-.098-.086-.158-.087-.277-.087l-.026-.001a.428.428 0 0 0-.242.075l.001-.001a.23.23 0 0 0-.095.186v.005q0 .111.111.186.113.075.33.141.4.12.583.298c.183.178.183.267.183.444V23a.55.55 0 0 1-.222.442l-.001.001q-.223.167-.602.167-.262 0-.478-.095a.773.773 0 0 1-.328-.262l-.002-.002a.675.675 0 0 1-.112-.374v-.015.001h.47q0 .377.45.377l.026.001a.432.432 0 0 0 .236-.069l-.002.001a.22.22 0 0 0 .094-.181v-.011z"/></symbol><symbol id="icon-instagram" viewBox="0 0 32 32"><path d="M31.969 9.408c-.075-1.7-.35-2.869-.744-3.882a7.847 7.847 0 0 0-1.85-2.837l-.001-.001A7.917 7.917 0 0 0 26.596.862l-.054-.018C25.523.45 24.36.175 22.66.1 20.947.019 20.403 0 16.059 0s-4.888.019-6.595.094c-1.7.075-2.869.35-3.882.744a7.845 7.845 0 0 0-2.837 1.849l-.001.001A7.917 7.917 0 0 0 .918 5.466L.9 5.52C.506 6.539.231 7.702.156 9.402c-.081 1.713-.1 2.257-.1 6.601s.019 4.888.094 6.595c.075 1.7.35 2.869.744 3.882a7.941 7.941 0 0 0 1.849 2.837l.001.001a7.917 7.917 0 0 0 2.778 1.826l.054.018c1.019.394 2.182.669 3.882.744 1.706.075 2.25.094 6.595.094s4.888-.019 6.595-.094c1.7-.075 2.869-.35 3.882-.744a8.227 8.227 0 0 0 4.663-4.627l.019-.055c.394-1.019.669-2.182.744-3.882.075-1.707.094-2.251.094-6.595s-.006-4.888-.081-6.595zm-2.882 13.065c-.069 1.563-.331 2.407-.55 2.969a5.333 5.333 0 0 1-3.002 3.026l-.036.012c-.563.219-1.413.481-2.969.55-1.688.075-2.194.094-6.464.094s-4.782-.019-6.464-.094c-1.563-.069-2.407-.331-2.969-.55a4.914 4.914 0 0 1-1.837-1.193l-.001-.001a5.014 5.014 0 0 1-1.183-1.804l-.011-.034c-.219-.563-.481-1.413-.55-2.969-.075-1.688-.094-2.194-.094-6.464s.019-4.782.094-6.464c.069-1.563.331-2.407.55-2.969A4.92 4.92 0 0 1 4.8 4.745l.002-.001a5.014 5.014 0 0 1 1.804-1.183l.034-.011c.563-.219 1.413-.481 2.969-.55 1.688-.075 2.194-.094 6.464-.094 4.276 0 4.782.019 6.464.094 1.563.069 2.407.331 2.969.55a4.914 4.914 0 0 1 1.837 1.193l.001.001a5.014 5.014 0 0 1 1.183 1.804l.011.034c.219.563.481 1.413.55 2.969.075 1.688.094 2.194.094 6.464s-.019 4.77-.094 6.458z"/><path d="M16.059 7.783c-4.538 0-8.22 3.682-8.22 8.22s3.682 8.22 8.22 8.22 8.22-3.682 8.22-8.22-3.682-8.22-8.22-8.22zm0 13.552a5.334 5.334 0 0 1-.006-10.664h.005a5.334 5.334 0 0 1 .006 10.664h-.005zM26.524 7.458a1.919 1.919 0 1 1-3.838 0 1.919 1.919 0 1 1 3.838 0z"/></symbol><symbol id="icon-linkedin" viewBox="0 0 32 32"><path d="m31.992 32 .008-.001V20.263c0-5.741-1.236-10.164-7.948-10.164-3.227 0-5.392 1.771-6.276 3.449h-.093v-2.913h-6.364v21.364h6.627V21.42c0-2.785.528-5.479 3.977-5.479 3.399 0 3.449 3.179 3.449 5.657v10.401h6.62zM.528 10.636h6.635V32H.528zM3.843 0C1.722 0 0 1.721 0 3.843s1.721 3.879 3.843 3.879 3.843-1.757 3.843-3.879A3.846 3.846 0 0 0 3.843 0z"/></symbol><symbol id="icon-smartphone" viewBox="0 0 20 32"><path d="M17 0H3C1.346 0 0 1.345 0 2.999V28.99a3.003 3.003 0 0 0 3 2.999h14c1.654 0 3-1.345 3-2.999V2.999A3.003 3.003 0 0 0 17 0zM3 1.999h14a1 1 0 0 1 1 1v20.993H2V2.999a1 1 0 0 1 1-1zM17 29.99H3a1 1 0 0 1-1-1v-2.999h16v2.999a1 1 0 0 1-1 1z" fill="currentColor"/><path d="M4.707 27.469c.391.365.391.956 0 1.321s-1.024.365-1.414 0c-.391-.365-.391-.956 0-1.321s1.024-.365 1.414 0z" style="fill:var(--color5, #757575)"/></symbol><symbol id="icon-Tag-Line-Company" viewBox="0 0 57 32"><path d="M28.493 14.618a1.571 1.571 0 0 1-.323-1.065v.005-1.538q0-.707.321-1.075c.321-.368.581-.367 1.102-.366q.733 0 1.042.313c.224.266.333.592.308.92v.361h-.875v-.366q.005-.18-.025-.358a.349.349 0 0 0-.124-.213l-.001-.001a.494.494 0 0 0-.278-.085l-.041.002h.002l-.038-.001a.518.518 0 0 0-.296.091l.002-.001a.405.405 0 0 0-.145.232v.003c-.022.102-.034.22-.034.341v.041-.002 1.866c-.014.18.025.36.112.524q.067.084.175.127c.108.043.149.038.226.029a.482.482 0 0 0 .312-.085l-.002.001a.382.382 0 0 0 .13-.225v-.002q.03-.186.027-.374v-.379h.875v.346c.025.342-.082.682-.303.967-.201.228-.544.343-1.047.343s-.884-.122-1.1-.375zm3.644.015q-.332-.358-.332-1.05v-1.617q0-.685.332-1.037c.332-.352.591-.351 1.109-.35q.772 0 1.103.35.332.352.333 1.037v1.617q0 .686-.337 1.048c-.337.362-.591.361-1.1.361s-.886-.122-1.109-.36zm1.517-.388a.89.89 0 0 0 .107-.425l-.002-.057v.003-1.98l.001-.048a.893.893 0 0 0-.107-.425l.002.005q-.068-.086-.179-.129c-.111-.043-.152-.037-.231-.027-.079-.009-.159 0-.231.028s-.135.072-.18.129a.843.843 0 0 0-.105.472v-.003 1.99a.875.875 0 0 0 .107.484l-.002-.005q.078.076.185.119c.107.043.147.042.225.042q.118 0 .225-.042a.401.401 0 0 0 .185-.119v-.009zm2.081-3.619h.942l.708 2.984.725-2.984h.917l.092 4.308h-.678l-.072-2.994-.699 2.994h-.544l-.725-3.005-.067 3.005h-.685zm4.441 0h1.468q1.268 0 1.268 1.223 0 1.172-1.335 1.17h-.5v1.915h-.906zm1.254 1.841a.694.694 0 0 0 .5-.138l-.002.001a.693.693 0 0 0 .13-.489v.003l.001-.052c0-.121-.016-.237-.047-.348l.002.009q-.02-.065-.067-.118a.296.296 0 0 0-.112-.086l-.002-.001a.93.93 0 0 0-.356-.07l-.05.001h.002-.352v1.287zm2.788-1.841h.973l.998 4.308h-.844l-.197-.993h-.868l-.203.993h-.857zm.832 2.815-.339-1.808-.339 1.808zm1.946-2.815h.634l1.214 2.457v-2.457h.752v4.308h-.603l-1.221-2.565v2.565h-.777l.002-4.308zm4.361 2.665-1.009-2.659h.85l.616 1.708.578-1.708h.832l-.997 2.659v1.642h-.87zm-21.465 3.526v.225h-.739v1.75h-.31v-1.75H28.1v-.225zm2.317 1.976h-.247a.094.094 0 0 1-.059-.02.106.106 0 0 1-.04-.044v-.001l-.214-.469h-1.026l-.214.469a.098.098 0 0 1-.033.053.099.099 0 0 1-.059.019h-.247l.906-1.976h.315zm-1.5-.734h.855l-.362-.804a1.42 1.42 0 0 1-.065-.176l-.002-.01-.034.105-.033.083zm3.062.54q.086.004.17 0 .073-.006.145-.023c.051-.011.095-.023.137-.038l-.007.002q.06-.022.121-.048v-.444h-.362q-.014 0-.026-.003c-.012-.003-.016-.007-.023-.012q-.01-.007-.014-.016-.006-.012-.004-.02v-.152h.703v.757a1.384 1.384 0 0 1-.603.202h-.005a2.696 2.696 0 0 1-.264.012h-.011c-.16 0-.313-.027-.456-.076l.01.003a1.099 1.099 0 0 1-.363-.207l.001.001a1.005 1.005 0 0 1-.231-.307l-.003-.006a.978.978 0 0 1-.083-.399v-.012.001l-.001-.037c0-.275.122-.521.316-.688l.001-.001c.103-.089.227-.159.362-.205.155-.05.32-.075.486-.074q.127 0 .252.017c.148.021.282.066.403.131l-.006-.003q.084.046.158.103l-.087.122q-.01.017-.029.027a.072.072 0 0 1-.036.01h-.007a.104.104 0 0 1-.055-.016l-.089-.047a.866.866 0 0 0-.114-.051l-.007-.002a.877.877 0 0 0-.161-.043l-.006-.001a1.34 1.34 0 0 0-.218-.017h-.013.001-.022c-.117 0-.23.02-.335.057l.007-.002a.705.705 0 0 0-.433.397l-.002.005a.916.916 0 0 0 .002.665l-.002-.006q.06.141.181.249a.817.817 0 0 0 .259.154l.006.002q.174.051.359.039zm2.888-.032h.989v.225h-1.292v-1.976h.31zm2.019.225h-.31v-1.976h.31zm1.152-1.966a.21.21 0 0 1 .047.036l1.324 1.489-.002-.035.002-.037v.002-1.472h.27v1.984h-.167a.13.13 0 0 1-.056-.012h.001a.207.207 0 0 1-.049-.038l-1.323-1.488v1.536h-.259v-1.976h.161q.026 0 .051.009zm3.923-.009v.217h-1.098v.652h.89v.21h-.89v.674h1.098v.217h-1.417v-1.971h1.417zM11.286 4.616l13.757 3.372v11.818l-13.757-3.371zm-.882-1.007V17.01l15.52 3.806V7.417z"/><path d="M18.722 27.036 3.2 23.227V9.828l15.522 3.807z" /><path d="m10.661 4.465 13.578 3.33-5.774 4.987L4.885 9.45zm-.257-.856L3.2 9.828l15.522 3.807 7.202-6.219zm9.191 22.673 6.329-5.465-6.329-1.553z"/></symbol><symbol id="icon-Tagline-Here-Company" viewBox="0 0 57 32"><path d="M26.727 3.165h-.073a7.501 7.501 0 0 0-.33-.012h-.249q-.32 0-.642.016h-.049c-1.944.11-3.848.596-5.609 1.431l-.231.111V16.52l.54-.183c.345-.126.845-.278 1.354-.412l.146-.033a17.855 17.855 0 0 1 4.304-.574h.013v1.551q-.288.002-.568.016h-.045c-1.212.068-2.348.25-3.442.537l.12-.027c-1.503.382-2.82.911-4.044 1.586l.087-.044V3.792a15.55 15.55 0 0 1 4.041-1.664l.11-.024c1.278-.33 2.593-.5 3.913-.504h.228q.411.01.788.038.989.07 1.95.311v1.527a11.385 11.385 0 0 0-1.85-.283l-.039-.002-.039-.003c-.132-.011-.263-.022-.386-.022zm2.688 1.561q.51.039 1.044.038a16.84 16.84 0 0 0 4.231-.554l-.117.026a16.949 16.949 0 0 0 4.044-1.587l-.088.044v14.875a15.53 15.53 0 0 1-4.043 1.664l-.11.024c-1.173.314-2.52.497-3.909.503h-.004c-1 .008-1.997-.11-2.968-.35V4.438q.344.08.706.142c.394.066.81.115 1.214.145zm7.57.115-.54.182q-.745.25-1.5.449c-1.344.36-2.888.57-4.48.575h-.003c-.352 0-.676-.01-.989-.03l-.43-.028v12.148l.37.033q.516.045 1.052.045a14.417 14.417 0 0 0 3.631-.48l-.1.023c.95-.238 1.874-.57 2.759-.991l.231-.111V4.843zM19.06 24.113q-.118-.121-.274-.186c-.156-.065-.214-.061-.326-.057h-.011a.902.902 0 0 0-.342.067l.006-.002q-.153.061-.27.178c-.117.117-.135.17-.174.271a.887.887 0 0 0-.062.328V26.742l-.001.034c0 .138.03.269.083.387l-.002-.006a.722.722 0 0 0 .475.414l.005.001q.148.042.302.042a.855.855 0 0 0 .838-.851v-.226h-.529v.187a.496.496 0 0 1-.032.177l.001-.003a.303.303 0 0 1-.077.114.377.377 0 0 1-.222.077.271.271 0 0 1-.249-.108l-.001-.001a.495.495 0 0 1-.07-.256v-.016.001-1.907c0-.103.024-.199.067-.285l-.002.004q.042-.066.112-.098a.224.224 0 0 1 .149-.024h-.001q.07-.002.132.028c.062.03.077.049.104.086.059.078.09.173.088.271v.175h.524v-.212a.945.945 0 0 0-.243-.634l.001.001zm3.142-.023a.918.918 0 0 0-1.199.001l.001-.001a.8.8 0 0 0-.203.278l-.002.005a.98.98 0 0 0-.077.385v1.949l-.001.032c0 .132.029.258.08.371l-.002-.006c.05.107.119.197.204.27l.001.001a.803.803 0 0 0 .273.169l.006.002q.153.056.316.057c.163.001.215-.02.316-.057a.851.851 0 0 0 .484-.437l.002-.005a.888.888 0 0 0 .078-.366l-.001-.033v.002-1.96a.923.923 0 0 0-.08-.379l.002.006a.901.901 0 0 0-.2-.283zm-.247 2.616a.356.356 0 0 1-.105.28.387.387 0 0 1-.499 0h.001a.348.348 0 0 1-.106-.251l.001-.03v.001-1.941l-.001-.025c0-.1.04-.19.106-.255a.387.387 0 0 1 .499 0h-.001a.348.348 0 0 1 .106.251l-.001.03v-.001zm4.374.867v-3.674h-.509l-.668 1.945h-.009l-.673-1.945h-.503v3.674h.525v-2.235h.009l.514 1.58h.262l.518-1.58h.009v2.235zm2.982-3.416a.7.7 0 0 0-.292-.199l-.005-.002a1.18 1.18 0 0 0-.366-.057h-.794v3.674h.523v-1.435h.27l.043.001a.945.945 0 0 0 .434-.104l-.005.003a.773.773 0 0 0 .285-.277l.002-.004a.885.885 0 0 0 .119-.315l.001-.005q.031-.208.028-.418l.001-.071c0-.161-.019-.318-.055-.468l.003.014a.81.81 0 0 0-.193-.338zm-.27 1.12a.454.454 0 0 1-.05.194l.001-.003a.304.304 0 0 1-.133.128l-.002.001a.541.541 0 0 1-.22.047l-.029-.001h.001-.239v-1.249h.27l.025-.001c.077 0 .149.017.214.048l-.003-.001a.304.304 0 0 1 .122.134l.001.002c.028.06.045.131.046.205v.244c0 .085.005.174 0 .252zm2.75-1.378h-.429l-.809 3.674h.523l.154-.789h.714l.154.789h.524l-.83-3.674zm-.483 2.384.258-1.332h.009l.256 1.332h-.524zm3.865-.171h-.009l-.791-2.213h-.503v3.674h.523v-2.209h.011l.8 2.209h.492v-3.674h-.523zm3.199-2.213-.421 1.461h-.011l-.421-1.461h-.554l.719 2.121v1.553h.524V26.02l.719-2.121zM17.6 28.61h.252v.708h.171v-.708h.251v-.145h-.675v.145zm2.121-.145-.331.853h.182l.07-.194h.34l.073.194h.186l-.339-.853zm-.027.516.116-.316.116.316zm2.124.023h.197v.11a.329.329 0 0 1-.202.072q-.052.003-.1-.019c-.048-.022-.059-.036-.081-.063a.346.346 0 0 1-.064-.201l.001-.022v.001q0-.285.246-.285c.043-.004.086.007.121.032s.061.062.072.104l.169-.033q-.053-.25-.362-.251h-.011a.43.43 0 0 0-.288.11.41.41 0 0 0-.121.329v-.002.019c0 .115.041.22.11.302l-.001-.001a.398.398 0 0 0 .292.126l.034-.001h-.001.019a.495.495 0 0 0 .343-.137v-.336h-.37v.144zm2.141-.539h-.173v.853h.598v-.145h-.425zm1.81 0h-.173v.853h.173zm1.77.57-.349-.57h-.167v.853h.161v-.557l.343.557h.171v-.853h-.158zm1.601-.092h.425v-.145h-.425v-.187h.457v-.145h-.63v.853h.648v-.145h-.475zm3.88-.141h-.336v-.336h-.171v.853h.171v-.373h.336v.373h.171v-.853h-.171zm1.609.141h.426v-.145h-.426v-.187h.459v-.145h-.63v.853h.646v-.145h-.475zm2.183 0q.223-.035.224-.237l.002-.025a.202.202 0 0 0-.085-.164h-.001a.495.495 0 0 0-.22-.051l-.032.001h.001-.362v.853h.171v-.357h.048a.23.23 0 0 1 .094.02l-.001-.001a.194.194 0 0 1 .06.061l.001.001.186.271h.205l-.104-.167a.611.611 0 0 0-.187-.204l-.002-.001zm-.172-.118h-.127v-.214h.135l.031-.001c.051 0 .1.008.147.022l-.004-.001q.018.017.029.04c.011.023.009.032.009.049q-.001.026-.013.048c-.012.022-.019.027-.032.037a.499.499 0 0 1-.143.021l-.032-.001h.001zm1.818.118h.425v-.145h-.425v-.187h.459v-.145h-.631v.853h.648v-.145h-.475v-.231z"/></symbol><symbol id="icon-YACO" viewBox="0 0 57 32"><path fill="currentColor" d="m20.267 3.733 3.738 3.538-6.938-.004v17.166H35.2v-6.564l3.733 3.534V3.732H20.266zm14.769 13.722L24.439 7.423h10.597zm-3.29 4.468h-11.81V10.378h.835v10.764h10.975zm-9.021 4.797-.436.898-.436-.898h-.366l.637 1.198v.698h.331v-.698l.635-1.198zm.548 1.895.154-.441h.734l.155.441h.344l-.717-1.896h-.296l-.716 1.896zm.521-1.493.275.786h-.549zm1.737.741a.426.426 0 0 0-.072.238v.003q0 .24.168.389c.168.149.263.148.451.148s.349-.051.484-.152l.107.126h.367l-.279-.329a.944.944 0 0 0 .165-.535l-.001-.041v.002h-.275v.01a.756.756 0 0 1-.081.342l.002-.004-.366-.432.129-.094q.137-.099.197-.198c.06-.099.06-.14.06-.219q0-.18-.133-.301c-.133-.121-.201-.122-.339-.122q-.229 0-.365.13c-.136.13-.135.203-.135.352q0 .091.043.189c.043.098.081.144.155.237a1.124 1.124 0 0 0-.281.259l-.002.003zm.855.419a.492.492 0 0 1-.298.107h-.001q-.142 0-.227-.082c-.085-.082-.085-.126-.085-.214q0-.153.156-.271l.04-.029.414.488zm-.34-.84q-.134-.165-.134-.275 0-.095.055-.158c.055-.063.085-.063.147-.063q.086 0 .142.053c.056.053.056.077.056.126v.004a.24.24 0 0 1-.081.18l-.04.033zm3.086 1.03a.698.698 0 0 0 .224-.472v-.002h-.328q-.026.203-.124.29c-.098.087-.162.087-.292.087q-.212 0-.323-.161c-.111-.161-.109-.264-.109-.469v-.168q.003-.303.117-.46c.114-.157.188-.158.331-.158q.185 0 .28.091c.095.091.104.158.12.294h.328q-.031-.31-.223-.482c-.192-.172-.296-.171-.505-.171q-.233 0-.411.111c-.178.111-.209.179-.272.315-.06.132-.095.286-.095.448v.026-.001.177q.004.261.098.46c.094.199.151.234.266.306.11.067.244.107.386.107h.014-.001q.324 0 .52-.169zm1.936-.266q.096-.211.096-.49v-.105q-.001-.277-.099-.486c-.098-.209-.158-.247-.277-.32q-.179-.112-.41-.112c-.231 0-.292.038-.411.113q-.178.113-.277.324c-.099.211-.098.305-.098.49v.107q.001.272.099.48c.098.208.159.246.279.322.113.07.25.112.397.112h.014-.001q.233 0 .411-.112a.601.601 0 0 0 .275-.319l.001-.004zm-.352-1.071q.12.168.12.483v.099q0 .32-.119.487c-.119.167-.19.167-.336.167q-.216 0-.339-.171c-.123-.171-.121-.275-.121-.483v-.109q.003-.306.122-.473c.119-.167.192-.168.335-.168q.219 0 .337.168z"/></symbol><symbol id="icon-mail" viewBox="0 0 15 12"> <path
    d="M13.5 0h-12C.675 0 .007.675.007 1.5L0 10.5c0 .825.675 1.5 1.5 1.5h12c.825 0 1.5-.675 1.5-1.5v-9c0-.825-.675-1.5-1.5-1.5Zm-.3 3.188L7.898 6.502a.759.759 0 0 1-.795 0L1.8 3.187a.637.637 0 1 1 .675-1.08L7.5 5.25l5.025-3.143a.637.637 0 1 1 .675 1.08Z"
    fill="currentColor"></path></symbol><symbol id="icon-phone" viewBox="0 0 13 13"><path
    d="m11.726 8.865-1.838-.21a1.44 1.44 0 0 0-1.187.413L7.37 10.399A10.888 10.888 0 0 1 2.6 5.63l1.34-1.339a1.44 1.44 0 0 0 .412-1.186l-.21-1.824A1.448 1.448 0 0 0 2.702 0H1.45C.632 0-.048.68.003 1.498c.383 6.18 5.326 11.116 11.499 11.5.818.05 1.498-.63 1.498-1.448v-1.252a1.434 1.434 0 0 0-1.274-1.433Z"
    fill="currentColor"
  ></path></symbol>
  <symbol id="icon-login" viewBox="0 0 12 12"><path
    d="M6 8c.939 0 2.376.24 3.565.716.595.238 1.095.523 1.44.84.341.315.495.629.495.944v.75c0 .136-.114.25-.25.25H.75a.252.252 0 0 1-.25-.25v-.75c0-.315.154-.629.495-.943.345-.318.846-.603 1.44-.841C3.624 8.239 5.06 8 6 8ZM6 .5a2.5 2.5 0 1 1 0 5 2.5 2.5 0 1 1 0-5Z" fill="currentColor"></path></symbol>
    <symbol id="icon-check" viewBox="0 0 64 32">
<path fill="#fff" d="M2.813 0.838l0.188 0.179 0.016 0.016-0.016 0.015-1.616 1.542-0.015-0.014-0.762-0.727 0.017-0.015 0.189-0.18 0.015-0.014 0.014 0.014 0.541 0.516 1.413-1.346 0.015 0.014z"></path></symbol>
<symbol id="icon-close" viewBox="0 0 32 32">
<path d="M32 3.223l-3.223-3.223-12.777 12.777-12.777-12.777-3.223 3.223 12.777 12.777-12.777 12.777 3.223 3.223 12.777-12.777 12.777 12.777 3.223-3.223-12.777-12.777 12.777-12.777z" fill="currentColor"></path></symbol>
<symbol id="icon-menu" viewBox="0 0 48 32">
<path d="M0 5.333v-5.333h48v5.333h-48zM0 18.667h48v-5.333h-48v5.333zM0 32h48v-5.333h-48v5.333z"></path></symbol>
<symbol id="icon-send" viewBox="0 0 24 24">
<path d="M24 0L0 13.5L7.66994 16.3407L19.5 5.25002L10.5017 17.3896L10.509 17.3923L10.5 17.3896V24.0001L14.8013 18.982L20.2501 21.0001L24 0Z"></path></symbol>
</svg>