<?xml version="1.0" encoding="utf-8"?>
<!-- Generated by IcoMoon.io -->
<svg version="1.1" xmlns="http://www.w3.org/2000/svg" xmlns:xlink="http://www.w3.org/1999/xlink" width="752" height="32" viewBox="0 0 752 32">
<svg id="icon-check" width="64" height="32" viewBox="0 0 64 32" x="0" y="0">
<path fill="#fff" d="M2.813 0.838l0.188 0.179 0.016 0.016-0.016 0.015-1.616 1.542-0.015-0.014-0.762-0.727 0.017-0.015 0.189-0.18 0.015-0.014 0.014 0.014 0.541 0.516 1.413-1.346 0.015 0.014z"></path>
</svg>
<svg id="icon-close" width="32" height="32" viewBox="0 0 32 32" x="96" y="0">
<path d="M32 3.223l-3.223-3.223-12.777 12.777-12.777-12.777-3.223 3.223 12.777 12.777-12.777 12.777 3.223 3.223 12.777-12.777 12.777 12.777 3.223-3.223-12.777-12.777 12.777-12.777z"></path>
</svg>
<svg id="icon-menu" width="48" height="32" viewBox="0 0 48 32" x="144" y="0">
<path d="M0 5.333v-5.333h48v5.333h-48zM0 18.667h48v-5.333h-48v5.333zM0 32h48v-5.333h-48v5.333z"></path>
</svg>
<svg id="icon-send" width="64" height="32" viewBox="0 0 64 32" x="240" y="0">
<path d="M5.12 0l-5.12 2.879 1.636 0.606 2.524-2.365-1.92 2.589 0.002 0-0.002-0v1.41l0.918-1.070 1.163 0.431 0.8-4.479z"></path>
</svg>
</svg>
